<svg width="106" height="106" viewBox="0 0 106 106" fill="none" xmlns="http://www.w3.org/2000/svg">
<path d="M53 0C42.5176 0 32.2706 3.10839 23.5548 8.93211C14.839 14.7558 8.04585 23.0333 4.03441 32.7178C0.022964 42.4022 -1.02661 53.0588 1.0184 63.3398C3.06342 73.6208 8.11118 83.0644 15.5234 90.4766C22.9355 97.8888 32.3792 102.937 42.6602 104.982C52.9412 107.027 63.5978 105.977 73.2822 101.966C82.9667 97.9541 91.2442 91.161 97.0679 82.4452C102.892 73.7294 106 63.4824 106 53C106 46.0399 104.629 39.148 101.966 32.7178C99.3021 26.2875 95.3982 20.4448 90.4767 15.5233C85.5552 10.6018 79.7125 6.69788 73.2822 4.03438C66.852 1.37089 59.9601 0 53 0V0ZM53 10.6C63.8901 10.5957 74.3578 14.8131 82.203 22.366C74.1047 27.1159 65.5233 30.9891 56.604 33.92C52.1652 26.2712 47.0761 19.0187 41.393 12.243C45.1664 11.1565 49.0733 10.6035 53 10.6V10.6ZM31.217 16.695C36.7697 23.0471 41.7533 29.875 46.11 37.1C35.7066 39.6832 25.0293 41.0001 14.31 41.022H12.402C15.4082 30.8441 22.1219 22.1636 31.217 16.695V16.695ZM21.2 81.143C14.3034 73.3984 10.5262 63.37 10.6 53C10.6 52.47 10.6 51.94 10.6 51.463H14.204C26.7511 51.3508 39.2274 49.5685 51.304 46.163C53 49.396 54.59 52.735 56.127 56.18C47.8669 59.0919 40.1741 63.4135 33.39 68.953L31.8 70.225C28.0217 73.6182 24.4801 77.2661 21.2 81.143V81.143ZM53 95.4C44.5523 95.4187 36.2955 92.8881 29.309 88.139C31.8893 85.1794 34.6506 82.3827 37.577 79.765L39.273 78.334C45.5438 73.0599 52.7296 68.982 60.473 66.303C63.6601 74.9207 66.1416 83.7832 67.893 92.803C63.122 94.545 58.0791 95.4243 53 95.4V95.4ZM77.539 87.503C75.805 79.4818 73.5387 71.585 70.755 63.865H72.557C72.7659 63.8133 72.9842 63.8133 73.193 63.865H73.776H74.306H76.85C82.4275 63.8809 87.963 64.8304 93.227 66.674C90.3349 75.1029 84.8418 82.3961 77.539 87.503V87.503ZM76.85 53C75.737 53 74.624 53 73.564 53C72.8777 52.9135 72.1833 52.9135 71.497 53C70.0565 53.0885 68.6228 53.2655 67.204 53.53H66.674C65.137 49.979 63.547 46.534 61.798 42.93C71.2883 39.6708 80.4031 35.4066 88.987 30.21C93.2452 37.0436 95.4696 44.9485 95.4 53C95.4 53.901 95.4 54.802 95.4 55.703C89.3934 53.8491 83.1358 52.9373 76.85 53V53Z" fill="#101010"/>
</svg>
