<svg width="85" height="83" viewBox="0 0 85 83" fill="none" xmlns="http://www.w3.org/2000/svg">
<path d="M42.4998 0C32.4082 0.000418966 22.6459 3.59593 14.9599 10.1432C7.2738 16.6904 2.16548 25.7622 0.548928 35.7352C-1.06762 45.7083 0.913085 55.9318 6.13665 64.5765C11.3602 73.2212 19.4857 79.723 29.0594 82.9185C31.1844 83.2909 31.9812 82.0145 31.9812 80.8974C31.9812 79.8869 31.9281 76.5361 31.9281 72.9726C21.25 74.9405 18.4875 70.3666 17.6375 67.9732C16.6943 65.6454 15.1992 63.5825 13.2813 61.9629C11.7938 61.1651 9.6688 59.1972 13.2281 59.1441C14.5872 59.2917 15.8907 59.7652 17.0282 60.5244C18.1657 61.2836 19.1036 62.3061 19.7625 63.5053C20.3437 64.5507 21.1254 65.4711 22.0625 66.2136C22.9997 66.956 24.074 67.5061 25.2238 67.8322C26.3737 68.1583 27.5765 68.254 28.7634 68.1139C29.9503 67.9738 31.0979 67.6006 32.1404 67.0156C32.3244 64.8525 33.2873 62.83 34.8499 61.3248C25.3937 60.261 15.5125 56.591 15.5125 40.3159C15.4528 36.0871 17.0114 31.9957 19.8687 28.8807C18.5694 25.2053 18.7215 21.1719 20.2937 17.605C20.2937 17.605 23.8529 16.4881 31.9811 21.9664C38.9353 20.0515 46.2768 20.0515 53.231 21.9664C61.359 16.4349 64.9184 17.605 64.9184 17.605C66.4909 21.1719 66.6429 25.2054 65.3434 28.8807C68.2093 31.9903 69.7693 36.0853 69.6996 40.3159C69.6996 56.6442 59.7652 60.261 50.3091 61.3248C51.3234 62.354 52.1045 63.5897 52.5995 64.9479C53.0945 66.3062 53.2918 67.7551 53.1779 69.1965C53.1779 74.8876 53.1247 79.4615 53.1247 80.8976C53.1247 82.0146 53.9216 83.3442 56.0466 82.9187C65.6033 79.6971 73.7055 73.1801 78.9068 64.531C84.1081 55.8818 86.07 45.6635 84.4423 35.7001C82.8145 25.7368 77.7031 16.6768 70.0204 10.1375C62.3377 3.59821 52.5838 0.00525448 42.4998 0V0Z" fill="#101010"/>
</svg>
