<svg xmlns="http://www.w3.org/2000/svg" xmlns:xlink="http://www.w3.org/1999/xlink" width="383.128" height="88.7" viewBox="0 0 383.128 88.7">
  <defs>
    <linearGradient id="linear-gradient" x1="-3.489" y1="2.75" x2="-3.489" y2="2.749" gradientUnits="objectBoundingBox">
      <stop offset="0" stop-color="#2aabee"/>
      <stop offset="1" stop-color="#229ed9"/>
    </linearGradient>
  </defs>
  <g id="telegram" transform="translate(-8.4 -105.4)">
    <g id="Artboard" transform="translate(8.4 105.4)">
      <path id="Oval" d="M44.35,0A44.35,44.35,0,1,1,0,44.35,44.35,44.35,0,0,1,44.35,0Z" transform="translate(0 0)" fill="url(#linear-gradient)"/>
      <path id="Path-3" d="M48.668,89.408q19.387-8.419,25.849-11.152c12.3-5.133,14.882-6.019,16.544-6.056a2.964,2.964,0,0,1,1.736.517,1.954,1.954,0,0,1,.628,1.219,6.382,6.382,0,0,1,.074,1.736c-.665,7.016-3.545,24.04-5.022,31.868-.628,3.323-1.846,4.431-3.028,4.542-2.585.222-4.542-1.7-7.016-3.323-3.914-2.548-6.093-4.136-9.9-6.647-4.394-2.88-1.551-4.468.96-7.053.665-.665,12-11,12.223-11.928a.879.879,0,0,0-.222-.775,1.017,1.017,0,0,0-.923-.074c-.406.074-6.61,4.21-18.685,12.371a8.32,8.32,0,0,1-4.8,1.773A31.963,31.963,0,0,1,50.182,94.8c-2.77-.886-4.985-1.366-4.8-2.917C45.492,91.07,46.6,90.258,48.668,89.408Z" transform="translate(-28.617 -45.538)" fill="#fff" fill-rule="evenodd"/>
    </g>
    <path id="Path_1" data-name="Path 1" d="M13.718,30.084h9.426V-4.072H36.182v-8.692H.68v8.692H13.718Zm37.828.735c5.937,0,10.283-2.265,13.405-6.121l-5.325-4.713c-2.632,2.387-4.836,3.367-7.957,3.367-4.162,0-7.1-2.2-8.019-6.427H66.481c.061-.918.122-1.714.122-2.448,0-9.3-5.019-17.812-15.976-17.812-9.549,0-16.221,7.713-16.221,17.078v.122C34.407,23.9,41.691,30.818,51.546,30.818Zm-8.019-19.71c.735-4.224,3.183-6.978,7.1-6.978s6.366,2.816,6.917,6.978ZM73.949,30.084h9.3V-14.6h-9.3Zm33.6.735c5.937,0,10.283-2.265,13.405-6.121l-5.325-4.713c-2.632,2.387-4.836,3.367-7.957,3.367-4.162,0-7.1-2.2-8.019-6.427h22.832c.061-.918.122-1.714.122-2.448,0-9.3-5.019-17.812-15.976-17.812-9.549,0-16.221,7.713-16.221,17.078v.122C90.415,23.9,97.7,30.818,107.554,30.818Zm-8.019-19.71c.735-4.224,3.183-6.978,7.1-6.978s6.366,2.816,6.917,6.978ZM144.219,40c6.366,0,11.018-1.285,14.14-4.407,2.754-2.754,4.162-7.1,4.162-12.915v-25.4h-9.3V1.56a13.282,13.282,0,0,0-10.589-4.9c-7.529,0-14.568,5.509-14.568,15.3v.122c0,9.794,6.917,15.3,14.568,15.3,4.958,0,7.957-1.959,10.712-5.325v1.591c0,5.876-3,8.937-9.365,8.937a21.41,21.41,0,0,1-11.079-3l-3.183,6.978A30.95,30.95,0,0,0,144.219,40Zm1.1-20.322c-4.591,0-7.957-3-7.957-7.59v-.122c0-4.468,3.428-7.59,7.957-7.59,4.591,0,8.019,3.122,8.019,7.59v.122C153.339,16.556,149.911,19.678,145.32,19.678Zm25.525,10.406h9.3V17.964c0-7.9,3.8-11.569,9.977-11.569h.49V-3.337c-5.57-.245-8.569,2.754-10.467,7.223V-2.725h-9.3Zm33.36.612a12.524,12.524,0,0,0,9.916-4.162v3.55h9V11.047c0-4.407-1.1-8.019-3.55-10.467-2.387-2.387-5.937-3.673-11.079-3.673A29.836,29.836,0,0,0,195.758-.46l2.326,7.1a22.778,22.778,0,0,1,9.059-1.775c4.652,0,7.039,2.081,7.039,6v.551a23.314,23.314,0,0,0-8.019-1.347c-7.774,0-13.221,3.367-13.221,10.467v.122C192.942,27.207,198.023,30.7,204.2,30.7Zm2.816-6.427c-3,0-5.08-1.469-5.08-3.979v-.122c0-2.938,2.448-4.53,6.427-4.53a14.646,14.646,0,0,1,5.937,1.224v1.653C214.3,21.943,211.428,24.269,207.021,24.269Zm24.117,5.815h9.3v-18.3c0-4.407,2.142-6.672,5.631-6.672s5.448,2.265,5.448,6.672v18.3h9.3v-18.3c0-4.407,2.142-6.672,5.631-6.672s5.448,2.265,5.448,6.672v18.3h9.3V8.721c0-7.9-4.162-12.058-11.079-12.058a13.334,13.334,0,0,0-10.773,5.2c-1.714-3.367-4.9-5.2-9.243-5.2-4.713,0-7.529,2.51-9.671,5.264V-2.725h-9.3Z" transform="translate(110.32 137)" fill="#7b879f"/>
  </g>
</svg>
